<?xml version="1.0" encoding="UTF-8"?><svg id="a" xmlns="http://www.w3.org/2000/svg" viewBox="0 0 512 512"><circle cx="251.17" cy="256.31" r="203.25" style="fill:#e5faef;"/><path d="m251.17,80.06c47.08,0,91.33,18.33,124.63,51.62,33.29,33.29,51.62,77.55,51.62,124.63s-18.33,91.33-51.62,124.63c-33.29,33.29-77.55,51.62-124.63,51.62s-91.33-18.33-124.63-51.62c-33.29-33.29-51.61-77.55-51.61-124.63s18.33-91.33,51.61-124.63c33.29-33.29,77.55-51.61,124.63-51.61m0-27c-112.25,0-203.25,91-203.25,203.25s91,203.25,203.25,203.25,203.25-91,203.25-203.25S363.41,53.06,251.17,53.06h0Z" style="fill:#0c6;"/><g style="isolation:isolate;"><text transform="translate(120.94 310.65)" style="fill:#080; font-family:RobotoMono-Regular, &apos;Roboto Mono&apos;; font-size:144px; isolation:isolate;"><tspan x="0" y="0">100</tspan></text></g><path d="m162.35,310.65v-85.79l-26.79,10.2v-11.88l38.75-14.91h1.05v102.38h-13Z" style="fill:#080;"/><path d="m281.59,288.83c-1.5,5.04-3.66,9.27-6.46,12.69-2.82,3.46-6.25,6.09-10.33,7.88s-8.75,2.67-14,2.67-9.87-.88-14-2.64-7.62-4.39-10.47-7.91c-2.87-3.42-5.04-7.65-6.54-12.69s-2.25-10.82-2.25-17.33v-23.97c0-6.51.75-12.3,2.25-17.33,1.5-5.04,3.67-9.29,6.54-12.77,2.82-3.46,6.27-6.1,10.37-7.9,4.09-1.8,8.76-2.7,13.95-2.7s9.93.9,14.03,2.7c4.09,1.8,7.58,4.44,10.44,7.9,2.82,3.46,4.96,7.73,6.46,12.77s2.25,10.82,2.25,17.33v23.97c0,6.51-.75,12.3-2.25,17.33h.01Zm-11.12-50.52c-.38-3.38-1.05-6.36-2.01-8.97s-2.26-4.77-3.9-6.51c-1.59-1.79-3.55-3.12-5.87-4-2.33-.88-5.01-1.33-8.05-1.33s-5.82.48-8.19,1.44-4.37,2.35-6.01,4.19c-1.96,2.29-3.43,5.26-4.39,8.89s-1.44,7.84-1.44,12.62v24.25l39.87-30.58h0Zm.29,21.45v-9l-39.79,30.45c.42,3.42,1.17,6.43,2.25,9.03s2.49,4.74,4.21,6.43c1.59,1.59,3.51,2.8,5.76,3.62s4.79,1.23,7.59,1.23c2.96,0,5.58-.45,7.88-1.33s4.25-2.17,5.83-3.87c2.16-2.29,3.74-5.29,4.74-9s1.51-8.07,1.51-13.08v-14.49h.02Z" style="fill:#080;"/><path d="m368,288.83c-1.5,5.04-3.66,9.27-6.46,12.69-2.82,3.46-6.25,6.09-10.33,7.88s-8.75,2.67-14,2.67-9.87-.88-14-2.64-7.62-4.39-10.47-7.91c-2.87-3.42-5.04-7.65-6.54-12.69s-2.25-10.82-2.25-17.33v-23.97c0-6.51.75-12.3,2.25-17.33,1.5-5.04,3.67-9.29,6.54-12.77,2.82-3.46,6.27-6.1,10.37-7.9,4.09-1.8,8.76-2.7,13.95-2.7s9.93.9,14.03,2.7c4.09,1.8,7.58,4.44,10.44,7.9,2.82,3.46,4.96,7.73,6.46,12.77s2.25,10.82,2.25,17.33v23.97c0,6.51-.75,12.3-2.25,17.33h.01Zm-11.12-50.52c-.38-3.38-1.05-6.36-2.01-8.97s-2.26-4.77-3.9-6.51c-1.59-1.79-3.55-3.12-5.87-4-2.33-.88-5.01-1.33-8.05-1.33s-5.82.48-8.19,1.44-4.37,2.35-6.01,4.19c-1.96,2.29-3.43,5.26-4.39,8.89s-1.44,7.84-1.44,12.62v24.25l39.87-30.58h0Zm.29,21.45v-9l-39.79,30.45c.42,3.42,1.17,6.43,2.25,9.03s2.49,4.74,4.21,6.43c1.59,1.59,3.51,2.8,5.76,3.62s4.79,1.23,7.59,1.23c2.96,0,5.58-.45,7.88-1.33s4.25-2.17,5.83-3.87c2.16-2.29,3.74-5.29,4.74-9s1.51-8.07,1.51-13.08v-14.49h.02Z" style="fill:#080;"/></svg>