<?xml version="1.0" encoding="UTF-8"?><svg id="Layer_1" xmlns="http://www.w3.org/2000/svg" viewBox="0 0 250 250"><path d="m143,39.5c-18,0-18,18-18,18,0,0,0-18-18-18H22c-2.76,0-5,2.24-5,5v143c0,2.76,2.24,5,5,5h76c7.2,0,8.64,11.52,8.93,16.13.07,1.05.95,1.87,2,1.87h32.14c1.06,0,1.94-.82,2-1.87.29-4.61,1.73-16.13,8.93-16.13h76c2.76,0,5-2.24,5-5V44.5c0-2.76-2.24-5-5-5h-85Zm63,123.5c0,1.38-1.12,2.5-2.5,2.5h-60.5c-18,0-18,18-18,18,0,0,0-18-18-18h-60.5c-1.38,0-2.5-1.12-2.5-2.5v-94c0-1.38,1.12-2.5,2.5-2.5h51.5c7.2,0,8.64,11.52,8.93,16.13.07,1.05.95,1.87,2,1.87h32.14c1.06,0,1.94-.82,2-1.87.29-4.61,1.73-16.13,8.93-16.13h51.5c1.38,0,2.5,1.12,2.5,2.5v94Z" style="fill:#06f;"/></svg>